<svg xmlns="http://www.w3.org/2000/svg" viewBox="0 0 203.157 45.511" height="172.008" width="767.838"><g style="line-height:125%" font-weight="500" font-size="26.567" font-family="Keep Calm" letter-spacing="0" word-spacing="0"><path d="M20.052 37.821q-1.579 1.921-3.842 3.053-2.237 1.131-4.947 1.131-2.342 0-4.395-.842-2.052-.868-3.579-2.342-1.526-1.474-2.42-3.447-.869-2-.869-4.29 0-2.289.868-4.263.895-2 2.421-3.473 1.527-1.5 3.58-2.342 2.052-.842 4.394-.842 2.71 0 4.947 1.131 2.263 1.132 3.763 2.948l-2.816 2.894q-.973-1.394-2.526-2.237-1.526-.868-3.368-.868-1.474 0-2.79.579-1.289.553-2.263 1.526-.973.948-1.552 2.237-.553 1.263-.553 2.71 0 1.422.553 2.71.579 1.264 1.552 2.238.974.947 2.263 1.526 1.316.553 2.79.553 1.947 0 3.447-.869 1.5-.894 2.5-2.342zM43.407 41.61h-4.474l-1.947-4.21h-10.21l-1.974 4.21h-4.474l9.947-21.051h3.185zm-8.026-7.605l-3.5-7.578-3.553 7.578zM63.004 41.61h-4l-9.5-14.762V41.61h-4V20.559h4.58l8.92 13.736V20.559h4zM88.173 41.61h-4.474l-1.947-4.21h-10.21l-1.974 4.21h-4.473l9.947-21.051h3.184zm-8.026-7.605l-3.5-7.578-3.553 7.578zM106.112 41.61h-4.5l-1.5-4.789q-.236-.79-.605-1.447-.342-.658-.842-1.132-.5-.473-1.21-.737-.684-.263-1.632-.263h-1.526v8.369H90.27V20.585l8.315-.026q1.342 0 2.5.473 1.158.448 2 1.263.842.816 1.316 1.921.474 1.106.474 2.395 0 .921-.29 1.79-.29.868-.816 1.605-.526.736-1.263 1.315-.71.553-1.579.842 1 .369 1.632 1.08.631.684 1 1.657.184.448.342.895.158.447.316.947.184.474.368 1.053.21.552.447 1.237.29.868.527 1.5.263.605.552 1.078zM100.77 26.9q0-.736-.289-1.342-.263-.605-.737-1.052-.474-.448-1.131-.684-.632-.264-1.369-.264h-2.947v6.553h2.947q.737 0 1.369-.21.657-.238 1.131-.659.474-.42.737-1 .29-.605.29-1.342zM112.698 41.61h-4.079V20.586h4.08zM137.873 41.61H133.4l-1.948-4.21h-10.21l-1.973 4.21h-4.474l9.947-21.051h3.184zm-8.026-7.605l-3.5-7.578-3.552 7.578zM154.023 36.084q0 1.185-.526 2.263-.5 1.053-1.421 1.869-.921.816-2.184 1.316-1.263.473-2.79.473-1.368 0-2.473-.158-1.079-.158-2.053-.5-.947-.342-1.842-.868-.868-.553-1.815-1.316l2.894-2.92q1.263 1.052 2.474 1.5 1.21.42 2.631.42.58 0 1.08-.158.525-.184.894-.473.395-.29.605-.685.237-.394.237-.868 0-.5-.184-.895-.184-.394-.658-.763-.474-.368-1.316-.737-.842-.394-2.158-.868-1.158-.421-2.236-.947-1.053-.553-1.869-1.316-.79-.763-1.29-1.79-.473-1.026-.473-2.42 0-1.343.526-2.474.553-1.132 1.474-1.921.947-.816 2.184-1.263 1.263-.448 2.71-.448 2.422 0 4.08.632 1.657.632 2.947 1.842l-2.842 2.868q-.79-.763-1.763-1.157-.974-.421-2.29-.421-.605 0-1.131.184-.5.184-.869.5-.368.29-.605.71-.21.395-.21.842 0 .5.21.921.21.395.71.79.5.368 1.316.763.842.368 2.08.816 1.578.552 2.71 1.21 1.131.658 1.842 1.447.71.79 1.052 1.79.342.974.342 2.21z" style="-inkscape-font-specification:'Keep Calm Medium'"/></g><path d="M157.986.34V45.17h44.832V.34z" fill="none" stroke="#efb300" stroke-width=".679"/><path d="M191.966 20.607c2.678 0 4.604.932 5.992 3.373l-3.281 2.106c-.722-1.295-1.501-1.805-2.711-1.805-1.234 0-2.016.783-2.016 1.806 0 1.263.782 1.775 2.59 2.558l1.053.451c3.58 1.535 5.6 3.1 5.6 6.618 0 3.793-2.979 5.87-6.98 5.87-3.913 0-6.44-1.864-7.677-4.307l3.423-1.99c.903 1.475 2.078 2.559 4.156 2.559 1.746 0 2.86-.872 2.86-2.078 0-1.444-1.145-1.956-3.066-2.796l-1.053-.452c-3.04-1.296-5.06-2.918-5.06-6.348 0-3.16 2.407-5.565 6.17-5.565zm-13.92.24h4.213V35.23c0 4.363-2.558 6.348-6.291 6.348-3.373 0-5.326-1.746-6.32-3.848l3.43-2.076c.661 1.174 1.263 2.167 2.71 2.167 1.385 0 2.258-.542 2.258-2.648z" fill="#efb300" stroke-width=".679"/></svg>